<mxfile host="Electron" agent="Mozilla/5.0 (Windows NT 10.0; Win64; x64) AppleWebKit/537.36 (KHTML, like Gecko) draw.io/26.0.9 Chrome/128.0.6613.186 Electron/32.2.5 Safari/537.36" version="26.0.9">
  <diagram name="Página-1" id="GsIk7r1uQpivfjq6lTAX">
    <mxGraphModel dx="1105" dy="654" grid="0" gridSize="10" guides="1" tooltips="1" connect="1" arrows="1" fold="1" page="1" pageScale="1" pageWidth="850" pageHeight="1100" math="0" shadow="0">
      <root>
        <mxCell id="0" />
        <mxCell id="1" parent="0" />
        <mxCell id="DH8c2p-65vTCQ9l4z-Cg-1" value="Determinar el mayor de 3 números enteros.&lt;div&gt;PSEUDOCÓDIGO:&lt;/div&gt;&lt;div&gt;&lt;br&gt;&lt;/div&gt;&lt;div&gt;INICIO&lt;/div&gt;&lt;div&gt;&lt;span style=&quot;white-space: pre;&quot;&gt;&#x9;&lt;/span&gt;Escribir &quot;Ingresa A, B y C (números enteros)&quot;&lt;/div&gt;&lt;div&gt;&lt;span style=&quot;white-space: pre;&quot;&gt;&#x9;&lt;/span&gt;Leer A&lt;/div&gt;&lt;div&gt;&lt;span style=&quot;white-space: pre;&quot;&gt;&#x9;&lt;/span&gt;Leer B&lt;/div&gt;&lt;div&gt;&lt;span style=&quot;white-space: pre;&quot;&gt;&#x9;&lt;/span&gt;Leer C&lt;/div&gt;&lt;div&gt;&lt;br&gt;&lt;/div&gt;&lt;div&gt;&lt;span style=&quot;white-space: pre;&quot;&gt;&#x9;&lt;/span&gt;SI A &amp;gt; B&amp;nbsp; &amp;nbsp;Y&amp;nbsp; &amp;nbsp;A &amp;gt; C&lt;br&gt;&lt;/div&gt;&lt;div&gt;&lt;br&gt;&lt;/div&gt;&lt;div&gt;&lt;span style=&quot;white-space: pre;&quot;&gt;&#x9;&lt;/span&gt;&lt;span style=&quot;white-space: pre;&quot;&gt;&#x9;&lt;/span&gt;MAYOR -&amp;gt; A&lt;br&gt;&lt;/div&gt;&lt;div&gt;&lt;br&gt;&lt;/div&gt;&lt;div&gt;&lt;span style=&quot;white-space: pre;&quot;&gt;&#x9;&lt;/span&gt;SI B &amp;gt; A&amp;nbsp; &amp;nbsp;Y B &amp;gt; C&lt;br&gt;&lt;/div&gt;&lt;div&gt;&lt;br&gt;&lt;/div&gt;&lt;div&gt;&lt;span style=&quot;white-space: pre;&quot;&gt;&#x9;&lt;/span&gt;&lt;span style=&quot;white-space: pre;&quot;&gt;&#x9;&lt;/span&gt;MAYOR -&amp;gt; B&lt;br&gt;&lt;/div&gt;&lt;div&gt;&lt;br&gt;&lt;/div&gt;&lt;div&gt;&lt;span style=&quot;white-space: pre;&quot;&gt;&#x9;&lt;/span&gt;CUALQUIER OTRO&lt;br&gt;&lt;/div&gt;&lt;div&gt;&lt;br&gt;&lt;/div&gt;&lt;div&gt;&lt;span style=&quot;white-space: pre;&quot;&gt;&#x9;&lt;/span&gt;&lt;span style=&quot;white-space: pre;&quot;&gt;&#x9;&lt;/span&gt;MAYOR -&amp;gt; C&lt;br&gt;&lt;/div&gt;&lt;div&gt;&lt;span style=&quot;white-space: pre;&quot;&gt;&#x9;&lt;/span&gt;&lt;br&gt;&lt;/div&gt;&lt;div&gt;&lt;span style=&quot;white-space: pre;&quot;&gt;&#x9;&lt;/span&gt;Escribir &quot;El número mayor es:&quot;, MAYOR&lt;br&gt;&lt;/div&gt;&lt;div&gt;FIN&lt;/div&gt;&lt;div&gt;&lt;br&gt;&lt;/div&gt;&lt;div&gt;&lt;span style=&quot;white-space: pre;&quot;&gt;&#x9;&lt;/span&gt;&lt;br&gt;&lt;/div&gt;" style="rounded=0;whiteSpace=wrap;html=1;align=left;" vertex="1" parent="1">
          <mxGeometry x="10" y="20" width="340" height="330" as="geometry" />
        </mxCell>
        <mxCell id="DH8c2p-65vTCQ9l4z-Cg-5" style="edgeStyle=orthogonalEdgeStyle;rounded=0;orthogonalLoop=1;jettySize=auto;html=1;exitX=0.5;exitY=1;exitDx=0;exitDy=0;entryX=0.5;entryY=0;entryDx=0;entryDy=0;" edge="1" parent="1" source="DH8c2p-65vTCQ9l4z-Cg-2" target="DH8c2p-65vTCQ9l4z-Cg-3">
          <mxGeometry relative="1" as="geometry" />
        </mxCell>
        <mxCell id="DH8c2p-65vTCQ9l4z-Cg-2" value="INICIO" style="ellipse;whiteSpace=wrap;html=1;aspect=fixed;" vertex="1" parent="1">
          <mxGeometry x="440" y="20" width="80" height="80" as="geometry" />
        </mxCell>
        <mxCell id="DH8c2p-65vTCQ9l4z-Cg-7" value="" style="edgeStyle=orthogonalEdgeStyle;rounded=0;orthogonalLoop=1;jettySize=auto;html=1;" edge="1" parent="1" source="DH8c2p-65vTCQ9l4z-Cg-3" target="DH8c2p-65vTCQ9l4z-Cg-6">
          <mxGeometry relative="1" as="geometry" />
        </mxCell>
        <mxCell id="DH8c2p-65vTCQ9l4z-Cg-3" value="&quot;Ingresa 3 números enteros&quot;" style="shape=parallelogram;perimeter=parallelogramPerimeter;whiteSpace=wrap;html=1;fixedSize=1;" vertex="1" parent="1">
          <mxGeometry x="390" y="130" width="190" height="70" as="geometry" />
        </mxCell>
        <mxCell id="DH8c2p-65vTCQ9l4z-Cg-4" value="" style="endArrow=classic;html=1;rounded=0;" edge="1" parent="1">
          <mxGeometry width="50" height="50" relative="1" as="geometry">
            <mxPoint x="560" y="150" as="sourcePoint" />
            <mxPoint x="610" y="100" as="targetPoint" />
          </mxGeometry>
        </mxCell>
        <mxCell id="DH8c2p-65vTCQ9l4z-Cg-15" style="edgeStyle=orthogonalEdgeStyle;rounded=0;orthogonalLoop=1;jettySize=auto;html=1;exitX=0.5;exitY=1;exitDx=0;exitDy=0;entryX=0.5;entryY=0;entryDx=0;entryDy=0;" edge="1" parent="1" source="DH8c2p-65vTCQ9l4z-Cg-6" target="DH8c2p-65vTCQ9l4z-Cg-9">
          <mxGeometry relative="1" as="geometry" />
        </mxCell>
        <mxCell id="DH8c2p-65vTCQ9l4z-Cg-6" value="Leer A&lt;div&gt;Leer B&lt;/div&gt;&lt;div&gt;Leer C&lt;/div&gt;" style="shape=parallelogram;perimeter=parallelogramPerimeter;whiteSpace=wrap;html=1;fixedSize=1;" vertex="1" parent="1">
          <mxGeometry x="390" y="280" width="190" height="70" as="geometry" />
        </mxCell>
        <mxCell id="DH8c2p-65vTCQ9l4z-Cg-8" value="" style="endArrow=classic;html=1;rounded=0;" edge="1" parent="1">
          <mxGeometry width="50" height="50" relative="1" as="geometry">
            <mxPoint x="600" y="260" as="sourcePoint" />
            <mxPoint x="560" y="300" as="targetPoint" />
          </mxGeometry>
        </mxCell>
        <mxCell id="DH8c2p-65vTCQ9l4z-Cg-12" value="" style="edgeStyle=orthogonalEdgeStyle;rounded=0;orthogonalLoop=1;jettySize=auto;html=1;" edge="1" parent="1" source="DH8c2p-65vTCQ9l4z-Cg-9" target="DH8c2p-65vTCQ9l4z-Cg-11">
          <mxGeometry relative="1" as="geometry" />
        </mxCell>
        <mxCell id="DH8c2p-65vTCQ9l4z-Cg-17" value="" style="edgeStyle=orthogonalEdgeStyle;rounded=0;orthogonalLoop=1;jettySize=auto;html=1;" edge="1" parent="1" source="DH8c2p-65vTCQ9l4z-Cg-9" target="DH8c2p-65vTCQ9l4z-Cg-16">
          <mxGeometry relative="1" as="geometry" />
        </mxCell>
        <mxCell id="DH8c2p-65vTCQ9l4z-Cg-9" value="A &amp;gt; B&amp;nbsp;&lt;div&gt;Y&lt;/div&gt;&lt;div&gt;A &amp;gt; C&lt;/div&gt;" style="rhombus;whiteSpace=wrap;html=1;" vertex="1" parent="1">
          <mxGeometry x="415" y="370" width="140" height="140" as="geometry" />
        </mxCell>
        <mxCell id="DH8c2p-65vTCQ9l4z-Cg-30" style="edgeStyle=orthogonalEdgeStyle;rounded=0;orthogonalLoop=1;jettySize=auto;html=1;exitX=1;exitY=0.5;exitDx=0;exitDy=0;entryX=0.545;entryY=0.061;entryDx=0;entryDy=0;entryPerimeter=0;" edge="1" parent="1" source="DH8c2p-65vTCQ9l4z-Cg-11" target="DH8c2p-65vTCQ9l4z-Cg-25">
          <mxGeometry relative="1" as="geometry">
            <mxPoint x="870" y="680" as="targetPoint" />
          </mxGeometry>
        </mxCell>
        <mxCell id="DH8c2p-65vTCQ9l4z-Cg-11" value="MAYOR = A" style="whiteSpace=wrap;html=1;" vertex="1" parent="1">
          <mxGeometry x="645" y="410" width="120" height="60" as="geometry" />
        </mxCell>
        <mxCell id="DH8c2p-65vTCQ9l4z-Cg-13" value="SI" style="text;html=1;align=center;verticalAlign=middle;whiteSpace=wrap;rounded=0;" vertex="1" parent="1">
          <mxGeometry x="555" y="400" width="60" height="30" as="geometry" />
        </mxCell>
        <mxCell id="DH8c2p-65vTCQ9l4z-Cg-19" value="" style="edgeStyle=orthogonalEdgeStyle;rounded=0;orthogonalLoop=1;jettySize=auto;html=1;" edge="1" parent="1" source="DH8c2p-65vTCQ9l4z-Cg-16" target="DH8c2p-65vTCQ9l4z-Cg-18">
          <mxGeometry relative="1" as="geometry" />
        </mxCell>
        <mxCell id="DH8c2p-65vTCQ9l4z-Cg-21" value="" style="edgeStyle=orthogonalEdgeStyle;rounded=0;orthogonalLoop=1;jettySize=auto;html=1;" edge="1" parent="1" source="DH8c2p-65vTCQ9l4z-Cg-16" target="DH8c2p-65vTCQ9l4z-Cg-20">
          <mxGeometry relative="1" as="geometry" />
        </mxCell>
        <mxCell id="DH8c2p-65vTCQ9l4z-Cg-16" value="B &amp;gt; A&amp;nbsp;&lt;div&gt;Y&lt;/div&gt;&lt;div&gt;B &amp;gt; C&lt;/div&gt;" style="rhombus;whiteSpace=wrap;html=1;" vertex="1" parent="1">
          <mxGeometry x="417.5" y="610" width="135" height="120" as="geometry" />
        </mxCell>
        <mxCell id="DH8c2p-65vTCQ9l4z-Cg-18" value="MAYOR = B" style="whiteSpace=wrap;html=1;" vertex="1" parent="1">
          <mxGeometry x="640" y="640" width="120" height="60" as="geometry" />
        </mxCell>
        <mxCell id="DH8c2p-65vTCQ9l4z-Cg-28" style="edgeStyle=orthogonalEdgeStyle;rounded=0;orthogonalLoop=1;jettySize=auto;html=1;exitX=1;exitY=0.5;exitDx=0;exitDy=0;" edge="1" parent="1" source="DH8c2p-65vTCQ9l4z-Cg-20" target="DH8c2p-65vTCQ9l4z-Cg-25">
          <mxGeometry relative="1" as="geometry" />
        </mxCell>
        <mxCell id="DH8c2p-65vTCQ9l4z-Cg-20" value="MAYOR = C" style="whiteSpace=wrap;html=1;" vertex="1" parent="1">
          <mxGeometry x="425" y="840" width="120" height="60" as="geometry" />
        </mxCell>
        <mxCell id="DH8c2p-65vTCQ9l4z-Cg-22" value="SI" style="text;html=1;align=center;verticalAlign=middle;whiteSpace=wrap;rounded=0;" vertex="1" parent="1">
          <mxGeometry x="552.5" y="630" width="60" height="30" as="geometry" />
        </mxCell>
        <mxCell id="DH8c2p-65vTCQ9l4z-Cg-23" value="NO" style="text;html=1;align=center;verticalAlign=middle;whiteSpace=wrap;rounded=0;" vertex="1" parent="1">
          <mxGeometry x="417.5" y="535" width="60" height="30" as="geometry" />
        </mxCell>
        <mxCell id="DH8c2p-65vTCQ9l4z-Cg-24" value="NO" style="text;html=1;align=center;verticalAlign=middle;whiteSpace=wrap;rounded=0;" vertex="1" parent="1">
          <mxGeometry x="415" y="760" width="60" height="30" as="geometry" />
        </mxCell>
        <mxCell id="DH8c2p-65vTCQ9l4z-Cg-34" value="" style="edgeStyle=orthogonalEdgeStyle;rounded=0;orthogonalLoop=1;jettySize=auto;html=1;" edge="1" parent="1" source="DH8c2p-65vTCQ9l4z-Cg-25" target="DH8c2p-65vTCQ9l4z-Cg-33">
          <mxGeometry relative="1" as="geometry" />
        </mxCell>
        <mxCell id="DH8c2p-65vTCQ9l4z-Cg-25" value="&quot;El número mayor es:&quot; MAYOR" style="shape=parallelogram;perimeter=parallelogramPerimeter;whiteSpace=wrap;html=1;fixedSize=1;" vertex="1" parent="1">
          <mxGeometry x="770" y="835" width="190" height="70" as="geometry" />
        </mxCell>
        <mxCell id="DH8c2p-65vTCQ9l4z-Cg-26" value="" style="endArrow=classic;html=1;rounded=0;" edge="1" parent="1">
          <mxGeometry width="50" height="50" relative="1" as="geometry">
            <mxPoint x="940" y="860" as="sourcePoint" />
            <mxPoint x="990" y="810" as="targetPoint" />
          </mxGeometry>
        </mxCell>
        <mxCell id="DH8c2p-65vTCQ9l4z-Cg-29" style="edgeStyle=orthogonalEdgeStyle;rounded=0;orthogonalLoop=1;jettySize=auto;html=1;exitX=1;exitY=0.5;exitDx=0;exitDy=0;entryX=0.537;entryY=0.029;entryDx=0;entryDy=0;entryPerimeter=0;" edge="1" parent="1" source="DH8c2p-65vTCQ9l4z-Cg-18" target="DH8c2p-65vTCQ9l4z-Cg-25">
          <mxGeometry relative="1" as="geometry" />
        </mxCell>
        <mxCell id="DH8c2p-65vTCQ9l4z-Cg-33" value="FIN" style="ellipse;whiteSpace=wrap;html=1;" vertex="1" parent="1">
          <mxGeometry x="825" y="980" width="80" height="80" as="geometry" />
        </mxCell>
        <mxCell id="DH8c2p-65vTCQ9l4z-Cg-35" value="Determinar el triángulo dados 3 lados.&lt;div&gt;PSEUDOCÓDIGO:&lt;/div&gt;&lt;div&gt;&lt;br&gt;&lt;/div&gt;&lt;div&gt;INICIO&lt;/div&gt;&lt;div&gt;&lt;span style=&quot;white-space: pre;&quot;&gt;&#x9;&lt;/span&gt;Escribir &quot;Ingresa los 3 lados del triángulo&quot;&lt;/div&gt;&lt;div&gt;&lt;span style=&quot;white-space: pre;&quot;&gt;&#x9;&lt;/span&gt;Leer A&lt;/div&gt;&lt;div&gt;&lt;span style=&quot;white-space: pre;&quot;&gt;&#x9;&lt;/span&gt;Leer B&lt;/div&gt;&lt;div&gt;&lt;span style=&quot;white-space: pre;&quot;&gt;&#x9;&lt;/span&gt;Leer C&lt;/div&gt;&lt;div&gt;&lt;span style=&quot;white-space: pre;&quot;&gt;&#x9;&lt;/span&gt;&lt;br&gt;&lt;/div&gt;&lt;div&gt;&lt;span style=&quot;white-space: pre;&quot;&gt;&#x9;&lt;/span&gt;Triangulo -&amp;gt; &quot;Isósceles&quot;&lt;br&gt;&lt;/div&gt;&lt;div&gt;&lt;br&gt;&lt;/div&gt;&lt;div&gt;&lt;span style=&quot;white-space: pre;&quot;&gt;&#x9;&lt;/span&gt;SI A == B&amp;nbsp; &amp;nbsp;Y&amp;nbsp; &amp;nbsp;A == C&amp;nbsp; Y&amp;nbsp; &amp;nbsp;B == C&lt;br&gt;&lt;/div&gt;&lt;div&gt;&lt;br&gt;&lt;/div&gt;&lt;div&gt;&lt;span style=&quot;white-space: pre;&quot;&gt;&#x9;&lt;/span&gt;&lt;span style=&quot;white-space: pre;&quot;&gt;&#x9;&lt;/span&gt;&lt;span style=&quot;background-color: transparent; color: light-dark(rgb(0, 0, 0), rgb(255, 255, 255));&quot;&gt;Triangulo -&amp;gt; &quot;Equilátero&quot;&lt;/span&gt;&lt;br&gt;&lt;/div&gt;&lt;div&gt;&lt;br&gt;&lt;/div&gt;&lt;div&gt;&lt;span style=&quot;white-space: pre;&quot;&gt;&#x9;&lt;/span&gt;SI A != B&amp;nbsp; &amp;nbsp;Y&amp;nbsp; A != C&amp;nbsp; &amp;nbsp;Y&amp;nbsp; &amp;nbsp;B ! = C&lt;br&gt;&lt;/div&gt;&lt;div&gt;&lt;br&gt;&lt;/div&gt;&lt;div&gt;&lt;span style=&quot;white-space: pre;&quot;&gt;&#x9;&lt;/span&gt;&lt;span style=&quot;white-space: pre;&quot;&gt;&#x9;&lt;/span&gt;&lt;span style=&quot;background-color: transparent; color: light-dark(rgb(0, 0, 0), rgb(255, 255, 255));&quot;&gt;Triangulo -&amp;gt; &quot;Escaleno&quot;&lt;/span&gt;&lt;/div&gt;&lt;div&gt;&lt;span style=&quot;white-space: pre;&quot;&gt;&#x9;&lt;/span&gt;&lt;br&gt;&lt;/div&gt;&lt;div&gt;&lt;span style=&quot;white-space: pre;&quot;&gt;&#x9;&lt;/span&gt;Escribir &quot;Tienes un triángulo:&quot;, Triangulo&lt;br&gt;&lt;/div&gt;&lt;div&gt;FIN&lt;/div&gt;&lt;div&gt;&lt;br&gt;&lt;/div&gt;&lt;div&gt;&lt;span style=&quot;white-space: pre;&quot;&gt;&#x9;&lt;/span&gt;&lt;br&gt;&lt;/div&gt;" style="rounded=0;whiteSpace=wrap;html=1;align=left;" vertex="1" parent="1">
          <mxGeometry x="18" y="1158" width="340" height="330" as="geometry" />
        </mxCell>
        <mxCell id="DH8c2p-65vTCQ9l4z-Cg-36" style="edgeStyle=orthogonalEdgeStyle;rounded=0;orthogonalLoop=1;jettySize=auto;html=1;exitX=0.5;exitY=1;exitDx=0;exitDy=0;entryX=0.5;entryY=0;entryDx=0;entryDy=0;" edge="1" parent="1" source="DH8c2p-65vTCQ9l4z-Cg-37" target="DH8c2p-65vTCQ9l4z-Cg-39">
          <mxGeometry relative="1" as="geometry" />
        </mxCell>
        <mxCell id="DH8c2p-65vTCQ9l4z-Cg-37" value="INICIO" style="ellipse;whiteSpace=wrap;html=1;aspect=fixed;" vertex="1" parent="1">
          <mxGeometry x="448" y="1158" width="80" height="80" as="geometry" />
        </mxCell>
        <mxCell id="DH8c2p-65vTCQ9l4z-Cg-38" value="" style="edgeStyle=orthogonalEdgeStyle;rounded=0;orthogonalLoop=1;jettySize=auto;html=1;" edge="1" parent="1" source="DH8c2p-65vTCQ9l4z-Cg-39" target="DH8c2p-65vTCQ9l4z-Cg-42">
          <mxGeometry relative="1" as="geometry" />
        </mxCell>
        <mxCell id="DH8c2p-65vTCQ9l4z-Cg-39" value="&quot;Ingresa los lados de tu triángulo&quot;" style="shape=parallelogram;perimeter=parallelogramPerimeter;whiteSpace=wrap;html=1;fixedSize=1;" vertex="1" parent="1">
          <mxGeometry x="390" y="1268" width="207" height="70" as="geometry" />
        </mxCell>
        <mxCell id="DH8c2p-65vTCQ9l4z-Cg-40" value="" style="endArrow=classic;html=1;rounded=0;" edge="1" parent="1">
          <mxGeometry width="50" height="50" relative="1" as="geometry">
            <mxPoint x="568" y="1288" as="sourcePoint" />
            <mxPoint x="618" y="1238" as="targetPoint" />
          </mxGeometry>
        </mxCell>
        <mxCell id="DH8c2p-65vTCQ9l4z-Cg-66" value="" style="edgeStyle=orthogonalEdgeStyle;rounded=0;orthogonalLoop=1;jettySize=auto;html=1;" edge="1" parent="1" source="DH8c2p-65vTCQ9l4z-Cg-42" target="DH8c2p-65vTCQ9l4z-Cg-65">
          <mxGeometry relative="1" as="geometry" />
        </mxCell>
        <mxCell id="DH8c2p-65vTCQ9l4z-Cg-42" value="Leer A&lt;div&gt;Leer B&lt;/div&gt;&lt;div&gt;Leer C&lt;/div&gt;" style="shape=parallelogram;perimeter=parallelogramPerimeter;whiteSpace=wrap;html=1;fixedSize=1;" vertex="1" parent="1">
          <mxGeometry x="398" y="1418" width="190" height="70" as="geometry" />
        </mxCell>
        <mxCell id="DH8c2p-65vTCQ9l4z-Cg-43" value="" style="endArrow=classic;html=1;rounded=0;" edge="1" parent="1">
          <mxGeometry width="50" height="50" relative="1" as="geometry">
            <mxPoint x="608" y="1398" as="sourcePoint" />
            <mxPoint x="568" y="1438" as="targetPoint" />
          </mxGeometry>
        </mxCell>
        <mxCell id="DH8c2p-65vTCQ9l4z-Cg-53" value="T= &quot;Equilátero&quot;" style="whiteSpace=wrap;html=1;" vertex="1" parent="1">
          <mxGeometry x="612.5" y="1637.5" width="120" height="60" as="geometry" />
        </mxCell>
        <mxCell id="DH8c2p-65vTCQ9l4z-Cg-56" value="SI" style="text;html=1;align=center;verticalAlign=middle;whiteSpace=wrap;rounded=0;" vertex="1" parent="1">
          <mxGeometry x="545" y="1624" width="60" height="30" as="geometry" />
        </mxCell>
        <mxCell id="DH8c2p-65vTCQ9l4z-Cg-58" value="NO" style="text;html=1;align=center;verticalAlign=middle;whiteSpace=wrap;rounded=0;" vertex="1" parent="1">
          <mxGeometry x="408" y="1753" width="60" height="30" as="geometry" />
        </mxCell>
        <mxCell id="DH8c2p-65vTCQ9l4z-Cg-59" value="" style="edgeStyle=orthogonalEdgeStyle;rounded=0;orthogonalLoop=1;jettySize=auto;html=1;" edge="1" parent="1" source="DH8c2p-65vTCQ9l4z-Cg-60" target="DH8c2p-65vTCQ9l4z-Cg-63">
          <mxGeometry relative="1" as="geometry" />
        </mxCell>
        <mxCell id="DH8c2p-65vTCQ9l4z-Cg-60" value="&quot;Tu triángulo es:&quot;, T" style="shape=parallelogram;perimeter=parallelogramPerimeter;whiteSpace=wrap;html=1;fixedSize=1;" vertex="1" parent="1">
          <mxGeometry x="778" y="1973" width="190" height="70" as="geometry" />
        </mxCell>
        <mxCell id="DH8c2p-65vTCQ9l4z-Cg-61" value="" style="endArrow=classic;html=1;rounded=0;" edge="1" parent="1">
          <mxGeometry width="50" height="50" relative="1" as="geometry">
            <mxPoint x="948" y="1998" as="sourcePoint" />
            <mxPoint x="998" y="1948" as="targetPoint" />
          </mxGeometry>
        </mxCell>
        <mxCell id="DH8c2p-65vTCQ9l4z-Cg-62" style="edgeStyle=orthogonalEdgeStyle;rounded=0;orthogonalLoop=1;jettySize=auto;html=1;exitX=1;exitY=0.5;exitDx=0;exitDy=0;entryX=0.537;entryY=0.029;entryDx=0;entryDy=0;entryPerimeter=0;" edge="1" parent="1" source="DH8c2p-65vTCQ9l4z-Cg-53" target="DH8c2p-65vTCQ9l4z-Cg-60">
          <mxGeometry relative="1" as="geometry" />
        </mxCell>
        <mxCell id="DH8c2p-65vTCQ9l4z-Cg-63" value="FIN" style="ellipse;whiteSpace=wrap;html=1;" vertex="1" parent="1">
          <mxGeometry x="833" y="2118" width="80" height="80" as="geometry" />
        </mxCell>
        <mxCell id="DH8c2p-65vTCQ9l4z-Cg-69" value="" style="edgeStyle=orthogonalEdgeStyle;rounded=0;orthogonalLoop=1;jettySize=auto;html=1;" edge="1" parent="1" source="DH8c2p-65vTCQ9l4z-Cg-65" target="DH8c2p-65vTCQ9l4z-Cg-68">
          <mxGeometry relative="1" as="geometry" />
        </mxCell>
        <mxCell id="DH8c2p-65vTCQ9l4z-Cg-65" value="T = &quot;Isósceles&quot;" style="whiteSpace=wrap;html=1;" vertex="1" parent="1">
          <mxGeometry x="432.5" y="1516" width="120" height="60" as="geometry" />
        </mxCell>
        <mxCell id="DH8c2p-65vTCQ9l4z-Cg-71" value="" style="edgeStyle=orthogonalEdgeStyle;rounded=0;orthogonalLoop=1;jettySize=auto;html=1;" edge="1" parent="1" source="DH8c2p-65vTCQ9l4z-Cg-68" target="DH8c2p-65vTCQ9l4z-Cg-70">
          <mxGeometry relative="1" as="geometry" />
        </mxCell>
        <mxCell id="DH8c2p-65vTCQ9l4z-Cg-73" style="edgeStyle=orthogonalEdgeStyle;rounded=0;orthogonalLoop=1;jettySize=auto;html=1;exitX=1;exitY=0.5;exitDx=0;exitDy=0;entryX=0;entryY=0.5;entryDx=0;entryDy=0;" edge="1" parent="1" source="DH8c2p-65vTCQ9l4z-Cg-68" target="DH8c2p-65vTCQ9l4z-Cg-53">
          <mxGeometry relative="1" as="geometry" />
        </mxCell>
        <mxCell id="DH8c2p-65vTCQ9l4z-Cg-68" value="A == B&amp;nbsp;&lt;div&gt;Y&lt;/div&gt;&lt;div&gt;B == C&lt;/div&gt;&lt;div&gt;Y&amp;nbsp;&lt;/div&gt;&lt;div&gt;C == A&lt;/div&gt;" style="rhombus;whiteSpace=wrap;html=1;" vertex="1" parent="1">
          <mxGeometry x="433" y="1606" width="117.5" height="123" as="geometry" />
        </mxCell>
        <mxCell id="DH8c2p-65vTCQ9l4z-Cg-74" style="edgeStyle=orthogonalEdgeStyle;rounded=0;orthogonalLoop=1;jettySize=auto;html=1;exitX=1;exitY=0.5;exitDx=0;exitDy=0;entryX=0;entryY=0.25;entryDx=0;entryDy=0;" edge="1" parent="1" source="DH8c2p-65vTCQ9l4z-Cg-70" target="DH8c2p-65vTCQ9l4z-Cg-72">
          <mxGeometry relative="1" as="geometry" />
        </mxCell>
        <mxCell id="DH8c2p-65vTCQ9l4z-Cg-75" style="edgeStyle=orthogonalEdgeStyle;rounded=0;orthogonalLoop=1;jettySize=auto;html=1;exitX=0.5;exitY=1;exitDx=0;exitDy=0;entryX=0;entryY=0.5;entryDx=0;entryDy=0;" edge="1" parent="1" source="DH8c2p-65vTCQ9l4z-Cg-70" target="DH8c2p-65vTCQ9l4z-Cg-60">
          <mxGeometry relative="1" as="geometry">
            <Array as="points">
              <mxPoint x="492" y="2008" />
            </Array>
          </mxGeometry>
        </mxCell>
        <mxCell id="DH8c2p-65vTCQ9l4z-Cg-70" value="A != B&amp;nbsp;&lt;div&gt;Y&lt;/div&gt;&lt;div&gt;B != C&lt;/div&gt;&lt;div&gt;Y&amp;nbsp;&lt;/div&gt;&lt;div&gt;C != A&lt;/div&gt;" style="rhombus;whiteSpace=wrap;html=1;" vertex="1" parent="1">
          <mxGeometry x="430.87" y="1830" width="121.75" height="122.5" as="geometry" />
        </mxCell>
        <mxCell id="DH8c2p-65vTCQ9l4z-Cg-78" style="edgeStyle=orthogonalEdgeStyle;rounded=0;orthogonalLoop=1;jettySize=auto;html=1;exitX=1;exitY=0.5;exitDx=0;exitDy=0;" edge="1" parent="1" source="DH8c2p-65vTCQ9l4z-Cg-72">
          <mxGeometry relative="1" as="geometry">
            <mxPoint x="879.909113103693" y="1974.090853604403" as="targetPoint" />
          </mxGeometry>
        </mxCell>
        <mxCell id="DH8c2p-65vTCQ9l4z-Cg-72" value="T= &quot;Escaleno&quot;" style="whiteSpace=wrap;html=1;" vertex="1" parent="1">
          <mxGeometry x="615" y="1877" width="120" height="60" as="geometry" />
        </mxCell>
        <mxCell id="DH8c2p-65vTCQ9l4z-Cg-76" value="NO" style="text;html=1;align=center;verticalAlign=middle;whiteSpace=wrap;rounded=0;" vertex="1" parent="1">
          <mxGeometry x="411" y="1959" width="60" height="30" as="geometry" />
        </mxCell>
        <mxCell id="DH8c2p-65vTCQ9l4z-Cg-77" value="SI" style="text;html=1;align=center;verticalAlign=middle;whiteSpace=wrap;rounded=0;" vertex="1" parent="1">
          <mxGeometry x="550.5" y="1835" width="60" height="30" as="geometry" />
        </mxCell>
      </root>
    </mxGraphModel>
  </diagram>
</mxfile>
